<?xml version="1.0" encoding="utf-8"?>
<!-- Generator: Adobe Illustrator 25.2.3, SVG Export Plug-In . SVG Version: 6.00 Build 0)  -->
<svg version="1.1" id="圖層_1" focusable="false" xmlns="http://www.w3.org/2000/svg" xmlns:xlink="http://www.w3.org/1999/xlink"
	 x="0px" y="0px" viewBox="0 0 576 512" style="enable-background:new 0 0 576 512;" xml:space="preserve">
<style type="text/css">
	.st0{fill:#9FA0A0;}
</style>
<path class="st0" d="M528,32H48C21.5,32,0,53.5,0,80v16h576V80C576,53.5,554.5,32,528,32z M0,432c0,26.5,21.5,48,48,48h480
	c26.5,0,48-21.5,48-48V128H0V432z M352,200c0-4.4,3.6-8,8-8h144c4.4,0,8,3.6,8,8v16c0,4.4-3.6,8-8,8H360c-4.4,0-8-3.6-8-8V200z
	 M352,264c0-4.4,3.6-8,8-8h144c4.4,0,8,3.6,8,8v16c0,4.4-3.6,8-8,8H360c-4.4,0-8-3.6-8-8V264z M352,328c0-4.4,3.6-8,8-8h144
	c4.4,0,8,3.6,8,8v16c0,4.4-3.6,8-8,8H360c-4.4,0-8-3.6-8-8V328z M176,192c35.3,0,64,28.7,64,64s-28.7,64-64,64s-64-28.7-64-64
	S140.7,192,176,192z M67.1,396.2C75.5,370.5,99.6,352,128,352h8.2c12.3,5.1,25.7,8,39.8,8s27.6-2.9,39.8-8h8.2
	c28.4,0,52.5,18.5,60.9,44.2c3.2,9.9-5.2,19.8-15.6,19.8H82.7C72.3,416,63.9,406,67.1,396.2z"/>
</svg>
